<?xml version="1.0" standalone="no"?>
<!DOCTYPE svg PUBLIC "-//W3C//DTD SVG 20010904//EN"
 "http://www.w3.org/TR/2001/REC-SVG-20010904/DTD/svg10.dtd">
<svg version="1.0" xmlns="http://www.w3.org/2000/svg"
 width="260.000000pt" height="260.000000pt" viewBox="0 0 260.000000 260.000000"
 preserveAspectRatio="xMidYMid meet">
<metadata>
Created by potrace 1.14, written by Peter Selinger 2001-2017
</metadata>
<g transform="translate(0.000000,260.000000) scale(0.100000,-0.100000)"
fill="#000000" stroke="none">
<path d="M2282 2578 c-7 -7 -12 -16 -12 -22 0 -5 7 -1 16 10 15 19 16 19 9 -1
-5 -16 -4 -18 6 -7 9 8 10 15 3 22 -7 7 -14 6 -22 -2z"/>
<path d="M2338 2568 c5 -5 16 -8 23 -6 8 3 3 7 -10 11 -17 4 -21 3 -13 -5z"/>
<path d="M2116 2539 c2 -4 -1 -9 -8 -11 -7 -3 -8 -7 -2 -11 5 -3 15 2 21 12 9
14 8 18 -3 18 -7 0 -11 -4 -8 -8z"/>
<path d="M2157 2539 c7 -7 15 -10 18 -7 3 3 -2 9 -12 12 -14 6 -15 5 -6 -5z"/>
<path d="M2210 2539 c0 -5 5 -7 10 -4 6 3 10 8 10 11 0 2 -4 4 -10 4 -5 0 -10
-5 -10 -11z"/>
<path d="M2070 2525 c-7 -9 -10 -18 -6 -22 3 -3 6 -1 6 6 0 7 4 10 8 7 5 -3 9
1 9 9 0 19 -2 19 -17 0z"/>
<path d="M1940 2506 c0 -2 7 -9 15 -16 9 -7 15 -8 15 -2 0 5 -7 12 -15 16 -8
3 -15 4 -15 2z"/>
<path d="M1886 2483 c-6 -14 -5 -15 5 -6 7 7 10 15 7 18 -3 3 -9 -2 -12 -12z"/>
<path d="M1915 2490 c-3 -5 -1 -10 4 -10 6 0 11 5 11 10 0 6 -2 10 -4 10 -3 0
-8 -4 -11 -10z"/>
<path d="M1850 2481 c0 -6 4 -13 10 -16 6 -3 7 1 4 9 -7 18 -14 21 -14 7z"/>
<path d="M1796 2471 c-3 -5 1 -11 9 -14 9 -4 12 -1 8 9 -6 16 -10 17 -17 5z"/>
<path d="M1830 2471 c0 -6 4 -13 10 -16 6 -3 7 1 4 9 -7 18 -14 21 -14 7z"/>
<path d="M1671 2434 c0 -11 3 -14 6 -6 3 7 2 16 -1 19 -3 4 -6 -2 -5 -13z"/>
<path d="M1690 2441 c0 -6 4 -13 10 -16 6 -3 7 1 4 9 -7 18 -14 21 -14 7z"/>
<path d="M1550 2420 c-13 -8 -12 -10 3 -10 9 0 17 5 17 10 0 12 -1 12 -20 0z"/>
<path d="M1615 2419 c-4 -6 -5 -12 -2 -15 2 -3 7 2 10 11 7 17 1 20 -8 4z"/>
<path d="M1466 2397 c3 -10 9 -15 12 -12 3 3 0 11 -7 18 -10 9 -11 8 -5 -6z"/>
<path d="M1437 2393 c-10 -9 -9 -23 1 -23 5 0 9 7 9 15 0 17 -1 18 -10 8z"/>
<path d="M1251 2354 c0 -11 3 -14 6 -6 3 7 2 16 -1 19 -3 4 -6 -2 -5 -13z"/>
<path d="M1311 2354 c0 -11 3 -14 6 -6 3 7 2 16 -1 19 -3 4 -6 -2 -5 -13z"/>
<path d="M1230 2341 c0 -6 4 -13 10 -16 6 -3 7 1 4 9 -7 18 -14 21 -14 7z"/>
<path d="M1140 2331 c0 -6 4 -13 10 -16 6 -3 7 1 4 9 -7 18 -14 21 -14 7z"/>
<path d="M1055 2320 c-3 -5 -1 -10 4 -10 6 0 11 5 11 10 0 6 -2 10 -4 10 -3 0
-8 -4 -11 -10z"/>
<path d="M1087 2319 c7 -7 15 -10 18 -7 3 3 -2 9 -12 12 -14 6 -15 5 -6 -5z"/>
<path d="M996 2303 c-6 -14 -5 -15 5 -6 7 7 10 15 7 18 -3 3 -9 -2 -12 -12z"/>
<path d="M953 2295 c0 -7 6 -11 14 -8 7 3 13 6 13 8 0 2 -6 5 -13 8 -8 3 -14
-1 -14 -8z"/>
<path d="M875 2280 c-3 -5 -1 -10 4 -10 6 0 11 5 11 10 0 6 -2 10 -4 10 -3 0
-8 -4 -11 -10z"/>
<path d="M930 2281 c0 -6 4 -13 10 -16 6 -3 7 1 4 9 -7 18 -14 21 -14 7z"/>
<path d="M817 2259 c7 -7 15 -10 18 -7 3 3 -2 9 -12 12 -14 6 -15 5 -6 -5z"/>
<path d="M850 2260 c0 -5 5 -10 11 -10 5 0 7 5 4 10 -3 6 -8 10 -11 10 -2 0
-4 -4 -4 -10z"/>
<path d="M1920 2238 c-19 -17 -54 -48 -78 -69 -24 -22 -41 -42 -39 -46 5 -9
19 -146 21 -202 1 -34 0 -35 -60 -48 l-60 -14 4 -57 c2 -31 7 -61 12 -66 4 -4
31 -3 60 3 64 14 67 14 67 -1 0 -7 3 -35 6 -63 3 -27 11 -99 17 -160 6 -60 13
-121 15 -135 2 -14 6 -56 10 -95 3 -38 8 -81 10 -95 2 -14 6 -47 10 -75 10
-90 33 -152 65 -179 53 -44 164 -47 276 -5 30 11 54 23 54 26 0 3 -9 36 -20
73 l-20 67 -56 -14 c-44 -12 -62 -12 -84 -3 -32 13 -43 51 -55 180 -3 36 -8
76 -10 90 -2 14 -7 52 -10 85 -6 67 -14 142 -20 195 -2 19 -7 63 -10 97 -8 70
-16 63 99 84 l68 13 -6 66 c-3 36 -6 67 -6 69 0 2 -12 0 -27 -4 -43 -11 -64
-15 -110 -22 l-43 -6 -1 34 c-1 19 -3 43 -4 54 -6 46 -14 124 -21 188 -4 37
-10 67 -13 67 -3 0 -22 -15 -41 -32z"/>
<path d="M737 2245 c-4 -8 -3 -16 1 -19 4 -3 9 4 9 15 2 23 -3 25 -10 4z"/>
<path d="M616 2223 c-6 -14 -5 -15 5 -6 7 7 10 15 7 18 -3 3 -9 -2 -12 -12z"/>
<path d="M670 2220 c0 -5 7 -7 15 -4 8 4 15 8 15 10 0 2 -7 4 -15 4 -8 0 -15
-4 -15 -10z"/>
<path d="M555 2210 c-4 -6 -11 -8 -16 -5 -5 4 -9 2 -9 -4 0 -5 8 -9 18 -8 10
0 19 7 19 14 0 16 -4 16 -12 3z"/>
<path d="M386 2182 c-3 -5 1 -9 9 -9 8 0 12 4 9 9 -3 4 -7 8 -9 8 -2 0 -6 -4
-9 -8z"/>
<path d="M455 2179 c-4 -6 -5 -12 -2 -15 2 -3 7 2 10 11 7 17 1 20 -8 4z"/>
<path d="M479 2173 c-12 -16 -12 -17 2 -6 9 7 20 9 24 5 5 -4 5 -1 1 6 -9 16
-11 15 -27 -5z"/>
<path d="M353 2165 c-3 -9 -3 -18 -1 -21 3 -3 8 4 11 16 6 23 -1 27 -10 5z"/>
<path d="M255 2151 c-3 -5 0 -13 6 -17 7 -4 9 -3 5 4 -3 6 2 13 11 15 16 4 16
5 1 6 -9 0 -19 -3 -23 -8z"/>
<path d="M230 2141 c0 -6 4 -13 10 -16 6 -3 7 1 4 9 -7 18 -14 21 -14 7z"/>
<path d="M1010 2133 c-152 -25 -309 -94 -393 -172 -169 -156 -173 -435 -9
-544 85 -56 170 -72 417 -82 174 -7 240 -13 285 -27 126 -38 172 -144 116
-263 -56 -120 -218 -204 -409 -210 -177 -6 -286 60 -334 202 -9 24 -20 42 -27
40 -6 -2 -45 -14 -88 -27 l-76 -22 17 -63 c28 -99 74 -168 151 -224 112 -81
248 -101 449 -66 267 46 455 193 507 395 40 158 -15 312 -140 385 -79 47 -175
62 -421 70 -261 8 -335 27 -371 97 -45 88 0 204 107 272 90 57 293 91 385 66
63 -18 126 -79 150 -146 l18 -52 70 20 c39 10 79 21 89 24 25 8 16 59 -24 135
-49 91 -125 153 -221 180 -43 12 -201 19 -248 12z"/>
<path d="M125 2120 c-3 -5 -1 -10 4 -10 6 0 11 5 11 10 0 6 -2 10 -4 10 -3 0
-8 -4 -11 -10z"/>
<path d="M153 2115 c0 -8 4 -12 9 -9 5 3 6 10 3 15 -9 13 -12 11 -12 -6z"/>
<path d="M205 2120 c3 -5 8 -10 11 -10 2 0 4 5 4 10 0 6 -5 10 -11 10 -5 0 -7
-4 -4 -10z"/>
<path d="M96 2107 c3 -10 9 -15 12 -12 3 3 0 11 -7 18 -10 9 -11 8 -5 -6z"/>
<path d="M30 2100 c0 -5 5 -10 10 -10 6 0 10 5 10 10 0 6 -4 10 -10 10 -5 0
-10 -4 -10 -10z"/>
<path d="M70 2090 c-9 -6 -10 -10 -3 -10 6 0 15 5 18 10 8 12 4 12 -15 0z"/>
<path d="M1 2073 c-1 -17 16 -25 25 -12 4 7 3 9 -4 5 -5 -3 -13 0 -15 6 -4 9
-6 10 -6 1z"/>
<path d="M2534 2012 c-100 -65 -160 -155 -179 -271 l-7 -44 58 6 c33 4 71 6
86 7 24 0 28 6 43 58 9 31 28 72 41 89 22 30 25 41 22 114 l-3 80 -61 -39z"/>
<path d="M26 2017 c3 -10 9 -15 12 -12 3 3 0 11 -7 18 -10 9 -11 8 -5 -6z"/>
<path d="M13 1991 c0 -11 5 -18 9 -15 4 3 5 11 1 19 -7 21 -12 19 -10 -4z"/>
<path d="M30 1922 c0 -5 7 -9 15 -9 8 0 12 4 9 9 -3 4 -9 8 -15 8 -5 0 -9 -4
-9 -8z"/>
<path d="M20 1881 c0 -10 19 -25 25 -20 1 2 -3 10 -11 17 -8 7 -14 8 -14 3z"/>
<path d="M33 1830 c1 -21 10 -18 13 5 1 8 -2 15 -6 15 -5 0 -8 -9 -7 -20z"/>
<path d="M30 1786 c0 -2 9 -6 20 -9 11 -3 18 -1 14 4 -5 9 -34 13 -34 5z"/>
<path d="M50 1720 c-11 -7 -11 -10 -2 -10 8 0 10 -5 6 -12 -4 -7 -3 -9 1 -5 7
6 17 37 12 37 -1 0 -9 -5 -17 -10z"/>
<path d="M65 1679 c-4 -6 -5 -12 -2 -15 2 -3 7 2 10 11 7 17 1 20 -8 4z"/>
<path d="M75 1570 c-4 -6 -11 -7 -17 -4 -7 4 -8 2 -4 -5 6 -9 11 -9 22 0 14
11 18 19 10 19 -3 0 -8 -5 -11 -10z"/>
<path d="M2539 1551 c-67 -44 -109 -90 -140 -156 -79 -167 0 -350 164 -380
l37 -7 0 90 c0 75 -3 93 -20 115 -35 44 -32 134 6 178 15 17 20 189 6 189 -4
0 -28 -13 -53 -29z"/>
<path d="M70 1520 c-13 -8 -12 -10 3 -10 9 0 17 5 17 10 0 12 -1 12 -20 0z"/>
<path d="M91 1444 c0 -11 3 -14 6 -6 3 7 2 16 -1 19 -3 4 -6 -2 -5 -13z"/>
<path d="M86 1405 c-3 -8 -1 -15 4 -15 6 0 10 7 10 15 0 8 -2 15 -4 15 -2 0
-6 -7 -10 -15z"/>
<path d="M80 1351 c0 -6 4 -13 10 -16 6 -3 7 1 4 9 -7 18 -14 21 -14 7z"/>
<path d="M95 1300 c-3 -6 1 -7 9 -4 18 7 21 14 7 14 -6 0 -13 -4 -16 -10z"/>
<path d="M94 1246 c1 -14 4 -28 7 -31 3 -3 5 6 5 19 -1 14 -4 28 -7 31 -3 3
-5 -6 -5 -19z"/>
<path d="M112 1201 c-11 -7 -11 -9 0 -14 9 -3 15 1 15 9 0 8 -1 14 -1 14 -1 0
-7 -4 -14 -9z"/>
<path d="M108 1163 c6 -2 9 -10 6 -15 -4 -7 -2 -8 5 -4 13 9 5 26 -12 25 -9 0
-8 -2 1 -6z"/>
<path d="M125 1120 c3 -5 8 -10 11 -10 2 0 4 5 4 10 0 6 -5 10 -11 10 -5 0 -7
-4 -4 -10z"/>
<path d="M110 1081 c0 -10 29 -36 34 -30 1 2 -6 12 -16 22 -10 9 -18 13 -18 8z"/>
<path d="M125 960 c-3 -6 1 -7 9 -4 18 7 21 14 7 14 -6 0 -13 -4 -16 -10z"/>
<path d="M134 939 c-4 -7 -3 -9 4 -5 5 3 13 0 15 -6 4 -9 6 -10 6 -1 1 17 -16
25 -25 12z"/>
<path d="M155 870 c6 -10 4 -12 -11 -6 -15 6 -17 5 -6 -5 9 -9 15 -10 23 -2 8
8 7 13 -2 18 -8 6 -10 4 -4 -5z"/>
<path d="M2574 845 c-4 -9 -15 -13 -29 -11 -19 4 -22 1 -18 -12 6 -15 5 -15
-10 -3 -14 11 -20 11 -32 1 -12 -10 -15 -10 -15 1 0 9 -3 10 -8 4 -4 -6 -17
-10 -29 -9 -16 1 -20 -3 -15 -15 5 -13 3 -14 -9 -4 -12 10 -18 10 -27 1 -9 -9
-12 -9 -12 -1 0 8 -8 8 -27 -2 -15 -8 -31 -11 -36 -8 -6 3 -7 1 -3 -5 3 -6 2
-13 -4 -17 -5 -3 -10 0 -10 9 0 15 -11 15 -44 1 -10 -5 -31 -9 -45 -11 -14 -1
-28 -3 -31 -4 -3 -1 -8 -2 -12 -1 -5 0 -8 -4 -8 -10 0 -6 7 -8 18 -4 14 5 15
4 4 -7 -11 -11 -16 -10 -26 5 -13 17 -14 17 -20 0 -4 -10 -10 -13 -14 -8 -9
13 -42 15 -42 3 0 -5 -4 -7 -9 -3 -5 3 -12 1 -16 -4 -3 -6 -12 -8 -20 -4 -8 3
-15 0 -15 -7 0 -6 5 -8 12 -4 7 4 8 3 4 -5 -5 -8 -12 -9 -19 -3 -7 5 -21 8
-32 6 -11 -2 -36 -5 -55 -8 -19 -2 -34 -9 -32 -15 3 -14 -15 -15 -23 -1 -4 6
-11 8 -16 4 -5 -3 -7 -10 -4 -15 4 -5 1 -9 -4 -9 -6 0 -11 4 -11 8 0 5 -7 9
-15 9 -10 0 -12 -4 -6 -11 7 -8 -2 -10 -31 -8 -33 4 -40 1 -35 -10 3 -8 -1
-15 -8 -15 -7 0 -11 6 -8 14 6 15 -13 18 -22 3 -3 -5 -12 -7 -20 -3 -8 3 -15
0 -15 -7 0 -6 -5 -8 -11 -5 -6 4 -17 -1 -25 -11 -8 -11 -14 -14 -13 -9 3 22
-2 27 -14 17 -7 -6 -28 -12 -45 -14 -18 -1 -32 -5 -32 -9 0 -3 -8 -6 -17 -6
-44 0 -55 -4 -50 -16 3 -8 -1 -14 -8 -14 -7 0 -11 6 -8 13 3 8 -4 11 -20 10
-14 0 -23 -5 -20 -9 3 -5 -5 -7 -18 -6 -13 2 -30 0 -36 -4 -7 -5 -13 -6 -13
-3 0 3 -15 -1 -34 -9 -18 -8 -37 -11 -40 -7 -4 3 -11 0 -17 -8 -8 -13 -10 -13
-19 0 -7 11 -10 11 -10 2 0 -7 -4 -11 -9 -7 -11 6 -41 -22 -41 -38 1 -7 6 -5
13 4 9 12 18 14 34 8 13 -5 25 -4 28 2 4 5 11 6 17 3 7 -5 9 -2 6 8 -4 8 0 15
8 15 7 0 11 -4 8 -9 -3 -4 0 -8 5 -8 6 0 11 4 11 10 0 16 38 32 46 18 4 -6 3
-8 -2 -5 -11 6 -41 -9 -33 -17 3 -3 17 1 32 9 20 10 27 11 27 2 0 -7 5 -4 11
6 5 9 15 17 22 17 8 0 6 -4 -3 -11 -13 -9 -13 -10 0 -6 8 2 14 10 12 17 -1 6
3 10 10 7 7 -2 12 -10 10 -17 -2 -10 1 -10 14 1 9 8 19 13 21 12 1 -2 5 -2 8
-2 3 1 14 2 25 3 12 0 25 8 30 16 7 11 10 12 10 2 0 -10 4 -9 16 3 13 13 19
13 32 3 10 -9 13 -9 9 -1 -4 6 -3 14 2 17 5 3 12 -2 15 -11 6 -14 9 -15 15 -4
5 7 12 13 17 14 5 1 8 7 6 12 -1 6 5 1 14 -10 14 -16 16 -17 11 -2 -4 11 -1
17 9 17 8 0 13 -4 10 -9 -5 -8 22 -8 32 -1 3 3 19 7 35 9 8 1 7 4 -3 11 -8 5
-10 10 -4 10 5 0 15 -5 22 -12 9 -9 12 -9 12 1 0 7 7 10 18 7 9 -3 24 -1 32 4
9 6 20 5 29 -3 12 -10 13 -9 6 2 -6 11 -4 13 9 8 9 -4 14 -3 11 2 -3 5 -1 12
5 16 5 3 10 2 10 -4 0 -11 26 -9 37 4 4 4 3 5 -4 1 -6 -3 -14 -2 -17 3 -5 8
15 8 34 1 3 -1 9 -2 13 -1 28 5 75 12 95 14 13 2 27 9 31 16 10 16 22 16 32
-1 5 -7 9 -8 9 -2 0 6 10 10 23 9 12 -1 27 0 32 4 6 3 17 6 25 6 8 0 20 3 25
7 6 4 23 5 38 4 14 -2 25 1 24 7 -1 5 6 11 16 12 9 2 17 -2 17 -8 0 -8 4 -7 9
2 5 8 14 10 21 6 8 -5 11 -4 6 3 -3 6 -2 13 4 17 5 3 10 2 10 -3 0 -9 29 -10
45 0 6 3 19 4 30 2 10 -1 25 2 32 8 7 6 13 7 13 3 0 -4 6 -2 13 4 8 6 17 8 20
4 4 -3 7 -1 7 5 0 7 5 12 11 12 5 0 7 -4 4 -10 -3 -5 0 -7 9 -4 8 3 17 12 20
20 4 10 2 12 -6 8 -8 -5 -9 -2 -5 9 3 10 4 17 1 17 -2 0 -7 -7 -10 -15z m-58
-37 c4 -6 3 -8 -4 -4 -6 3 -13 2 -17 -4 -3 -5 -16 -8 -28 -6 -12 2 -28 -1 -35
-7 -9 -7 -11 -6 -6 7 4 11 14 14 34 11 16 -3 32 -1 35 5 8 13 12 13 21 -2z
m-146 -22 c0 -2 -7 -7 -16 -10 -8 -3 -12 -2 -9 4 6 10 25 14 25 6z m-90 -29
c0 -8 -3 -8 -9 1 -6 10 -10 10 -20 -2 -6 -8 -20 -13 -29 -11 -9 1 -22 -1 -28
-6 -6 -5 -11 -3 -11 5 0 8 10 12 28 11 16 -1 34 4 40 11 12 15 29 10 29 -9z
m-190 -36 c0 -4 -11 -7 -24 -7 -14 0 -23 3 -21 6 5 9 45 10 45 1z m-373 -76
c0 -8 -4 -12 -9 -9 -5 3 -6 10 -3 15 9 13 12 11 12 -6z m-343 -63 c3 -5 -1 -9
-9 -9 -8 0 -12 4 -9 9 3 4 7 8 9 8 2 0 6 -4 9 -8z"/>
<path d="M150 830 c-9 -6 -10 -10 -3 -10 6 0 15 5 18 10 8 12 4 12 -15 0z"/>
<path d="M132 785 c3 -3 16 -8 28 -10 12 -2 20 -1 16 2 -4 4 -16 8 -28 10 -12
2 -19 1 -16 -2z"/>
<path d="M150 720 c0 -5 5 -10 11 -10 5 0 7 5 4 10 -3 6 -8 10 -11 10 -2 0 -4
-4 -4 -10z"/>
<path d="M155 620 c-3 -5 -1 -10 4 -10 6 0 11 5 11 10 0 6 -2 10 -4 10 -3 0
-8 -4 -11 -10z"/>
<path d="M175 550 c-3 -6 1 -7 9 -4 18 7 21 14 7 14 -6 0 -13 -4 -16 -10z"/>
<path d="M1147 544 c-6 -6 -33 -12 -82 -17 -11 -2 -24 -5 -30 -9 -5 -3 -18 -4
-27 -3 -10 2 -18 -1 -18 -6 0 -5 -3 -8 -7 -7 -17 4 -53 -14 -47 -24 4 -7 2 -8
-5 -4 -9 6 -9 11 0 22 10 12 9 13 -5 8 -9 -3 -16 -14 -16 -23 0 -10 -3 -12 -8
-5 -7 11 -39 13 -57 2 -6 -3 -18 -4 -27 -3 -9 2 -22 -3 -29 -11 -14 -17 -36
-18 -42 -1 -4 9 -6 9 -6 -1 -1 -7 -6 -10 -13 -6 -7 4 -8 3 -4 -4 4 -7 3 -12
-3 -12 -5 0 -13 5 -16 10 -5 8 -11 7 -21 -1 -8 -6 -14 -8 -14 -4 0 4 -6 3 -13
-4 -8 -6 -31 -12 -53 -14 -21 -1 -45 -6 -52 -10 -6 -5 -17 -5 -22 -2 -6 3 -13
-1 -16 -9 -3 -9 -10 -13 -15 -10 -5 3 -6 11 -2 17 5 8 2 8 -9 0 -8 -7 -19 -9
-24 -5 -4 4 -2 -1 5 -10 12 -16 10 -16 -17 -8 -17 4 -33 5 -37 2 -3 -3 -13 -7
-23 -9 -35 -8 -78 -14 -99 -15 -13 -1 -23 -5 -23 -8 0 -3 -16 -7 -35 -8 -23
-2 -34 2 -33 9 2 6 -3 13 -10 15 -7 1 -8 0 -3 -2 5 -3 7 -18 5 -34 -4 -20 1
-35 15 -49 20 -20 20 -20 18 11 -1 20 3 33 13 35 12 4 13 3 1 -5 -10 -7 -5 -9
18 -8 17 0 31 4 31 8 0 5 3 7 8 7 4 -1 14 -1 22 0 12 1 12 3 2 10 -11 7 -10 9
3 14 9 4 14 3 11 -1 -2 -4 -1 -14 5 -22 7 -12 9 -9 9 10 0 19 3 22 9 11 8 -13
12 -13 27 0 11 9 15 9 10 2 -4 -7 -2 -13 3 -13 6 0 11 6 11 14 0 8 5 18 12 22
8 5 9 2 5 -10 -4 -9 -3 -15 2 -11 5 3 11 2 14 -2 2 -5 2 -2 0 5 -2 8 2 10 9 5
21 -12 46 -10 41 3 -5 13 14 14 34 1 6 -4 14 -3 18 3 3 5 15 10 26 10 10 0 19
5 19 11 0 5 4 8 9 4 5 -3 12 -1 16 4 3 7 15 7 30 1 14 -5 27 -6 30 0 3 5 14 7
25 5 12 -2 18 0 15 6 -4 5 -2 9 4 9 5 0 11 -3 14 -7 2 -5 2 -3 1 4 -2 7 1 15
6 18 6 4 10 -2 11 -12 0 -11 3 -13 6 -5 2 6 9 9 14 6 6 -3 16 0 24 6 12 10 15
10 15 -1 1 -10 4 -9 14 3 10 14 15 15 26 5 10 -9 11 -9 6 1 -5 8 0 11 16 8 13
-2 28 1 34 6 7 5 16 8 20 7 21 -3 35 2 29 11 -3 6 -1 10 4 10 6 0 11 -5 11
-11 0 -7 7 -8 18 -4 9 4 30 8 46 10 16 1 32 9 37 16 8 12 11 11 19 -1 9 -13
10 -13 11 0 1 8 1 19 0 23 -1 5 3 6 9 2 6 -3 8 -11 5 -16 -10 -16 6 -10 23 9
10 10 13 12 8 5 -5 -8 -4 -13 2 -13 8 0 22 22 22 36 0 6 -16 5 -23 -2z m-88
-40 c-5 -7 -18 -11 -27 -9 -9 1 -25 -2 -34 -6 -9 -5 -19 -5 -22 -1 -3 5 0 9 7
10 22 2 46 8 52 13 3 3 12 6 20 6 11 0 12 -4 4 -13z m-165 -32 c3 -5 -1 -9 -9
-9 -8 0 -12 4 -9 9 3 4 7 8 9 8 2 0 6 -4 9 -8z m-70 -14 c-4 -5 -9 -7 -12 -4
-3 3 -12 0 -21 -7 -14 -10 -14 -10 -4 4 13 16 46 23 37 7z m-120 -29 c-3 -5
-9 -7 -14 -4 -5 3 -11 1 -15 -5 -4 -6 -11 -8 -16 -4 -5 3 -7 10 -3 15 3 5 9 7
14 4 5 -3 11 -1 15 5 4 6 11 8 16 4 5 -3 7 -10 3 -15z m-120 -21 c-3 -5 -9 -6
-14 -3 -4 3 -13 -2 -20 -10 -13 -16 -30 -11 -30 8 0 8 3 8 9 -1 6 -11 10 -10
19 1 12 15 45 19 36 5z m-278 -60 c4 -7 4 -10 -1 -6 -4 4 -16 3 -26 -2 -12 -7
-20 -6 -25 2 -4 6 -3 8 2 5 6 -3 16 -2 24 4 19 11 18 11 26 -3z m-93 -28 c3
-11 1 -18 -4 -14 -5 3 -9 12 -9 20 0 20 7 17 13 -6z"/>
<path d="M173 509 c-2 -23 3 -25 10 -4 4 8 3 16 -1 19 -4 3 -9 -4 -9 -15z"/>
<path d="M190 421 c0 -6 4 -12 8 -15 5 -3 9 1 9 9 0 8 -4 15 -9 15 -4 0 -8 -4
-8 -9z"/>
<path d="M216 247 c3 -10 9 -15 12 -12 3 3 0 11 -7 18 -10 9 -11 8 -5 -6z"/>
<path d="M210 210 c-9 -6 -10 -10 -3 -10 6 0 15 5 18 10 8 12 4 12 -15 0z"/>
<path d="M230 191 c0 -7 -5 -9 -12 -5 -7 5 -8 3 -3 -5 5 -9 10 -10 18 -2 6 6
8 14 4 18 -4 3 -7 1 -7 -6z"/>
<path d="M207 159 c7 -7 15 -10 18 -7 3 3 -2 9 -12 12 -14 6 -15 5 -6 -5z"/>
<path d="M222 100 c-15 -24 -15 -30 -2 -30 6 0 9 6 8 13 -2 6 2 11 9 10 7 -2
10 4 7 12 -8 19 -7 19 -22 -5z"/>
<path d="M233 42 c-9 -5 -6 -12 10 -21 19 -13 21 -12 10 1 -7 8 -10 18 -6 21
9 9 1 8 -14 -1z"/>
</g>
</svg>
